<svg xmlns="http://www.w3.org/2000/svg" width="179.93" height="142" viewBox="0 0 179.93 142">
  <g id="Group_103" data-name="Group 103" transform="translate(-272 -2098)">
    <path id="Union_5" data-name="Union 5" d="M0,133V21H59V0h53V21h58V133Z" transform="translate(272 2107)" fill="#ffca06"/>
    <g id="Group_91" data-name="Group 91" transform="translate(-360.816 1641.814)">
      <path id="Path_29" data-name="Path 29" d="M811.822,476.729a2.491,2.491,0,0,0-1.569-.555H753.97v-17.5a2.493,2.493,0,0,0-2.493-2.492H700.084a2.493,2.493,0,0,0-2.492,2.492v17.5h-56c-.048,0-.095,0-.14,0a2.429,2.429,0,0,0-1.711.55,2.494,2.494,0,0,0-.924,1.938V590.661a2.494,2.494,0,0,0,3.277,2.366H809.469a2.492,2.492,0,0,0,3.277-2.366V478.666A2.494,2.494,0,0,0,811.822,476.729ZM643.8,588.043V525.4l7.773,11.776a2.49,2.49,0,0,0,2.08,1.12h58.364v12.765a2.492,2.492,0,0,0,2.492,2.493h22.539a2.493,2.493,0,0,0,2.492-2.493V538.3h58.364a2.49,2.49,0,0,0,2.08-1.12l7.775-11.779v62.644ZM748.985,461.171v15H702.577v-15Zm58.776,19.988v36.26l-.492-.324-10.706,16.218H739.542v-8.951a2.493,2.493,0,0,0-2.492-2.493H714.511a2.492,2.492,0,0,0-2.492,2.493v8.951H655l-10.7-16.218-.49.322V481.159Zm-73.2,67.411H717V526.854h17.554Z" transform="translate(0)"/>
    </g>
  </g>
</svg>
