<svg xmlns="http://www.w3.org/2000/svg" xmlns:xlink="http://www.w3.org/1999/xlink" width="107.832" height="38.523" viewBox="0 0 107.832 38.523"><defs><style>.a{fill:none;}.b{clip-path:url(#a);}.c{fill:#fff;}</style><clipPath id="a"><rect class="a" width="107.832" height="38.523" transform="translate(950.501 5550.165)"/></clipPath></defs><g transform="translate(-950.501 -5550.165)"><g class="b"><g class="b"><path class="c" d="M1046.047,5566.647l-2.373,8.2a5.192,5.192,0,0,1-.962,2.012,3.543,3.543,0,0,1-2.909,1.123q-2,0-2.28-1.123a3.835,3.835,0,0,1,.194-2.012l2.375-8.2h-3.335l-2.374,8.2a5.538,5.538,0,0,0-.182,3.314q.834,2.177,4.913,2.177t6.158-2.177a7.946,7.946,0,0,0,1.737-3.314l2.374-8.2Z"/><path class="c" d="M968.516,5566.646l2.357-8.135h-5.227l-2.347,8.135Z"/><path class="c" d="M970.305,5566.7l-1.051,3.7h8.05l-2.754,9.587H979.8l6.2-21.477h-5.245l-2.373,8.19Z"/><path class="c" d="M959.451,5579.988h5.227l2.718-9.459H962.18Z"/><path class="c" d="M1021.869,5575.857l.477-1.641h-5.4l.576-2.01h5.885l.487-1.671h-8.156l-2.727,9.453h8.428l.488-1.7h-6.157l.7-2.43Z"/><path class="c" d="M1033.162,5571.437a1.93,1.93,0,0,0-.881-.658,5.115,5.115,0,0,0-1.725-.243H1025.1l-2.729,9.452h2.271l1.065-3.707h2.4a1.928,1.928,0,0,1,1.313.3c.191.2.2.6.041,1.206l-.239.879a3.845,3.845,0,0,0-.136.814c-.006.128,0,.3.01.508h2.558l.061-.238a.563.563,0,0,1-.266-.538,4.659,4.659,0,0,1,.2-.88l.182-.634a2.525,2.525,0,0,0,.1-1.479,1.365,1.365,0,0,0-.872-.747,3.2,3.2,0,0,0,1.586-.92,3.451,3.451,0,0,0,.787-1.326,2.166,2.166,0,0,0,.072-.993,2.017,2.017,0,0,0-.342-.8m-2.139,2.06a1.519,1.519,0,0,1-1.008,1.064,3.838,3.838,0,0,1-1.221.154h-2.634l.733-2.538h2.7a2.578,2.578,0,0,1,1.088.167c.388.192.5.579.34,1.153"/><path class="c" d="M987.846,5570.536l-6.7,9.452h2.43l1.327-1.945H989l.159,1.945h2.52l-1.211-9.452ZM986,5576.417l2.5-3.721.317,3.721Z"/><path class="c" d="M1014.747,5570.536h-3l-5.417,3.891,1.125-3.891h-2.288l-2.727,9.453h2.286l.907-3.163,1.389-.968,2.246,4.13h2.987l-3.187-5.562Z"/><path class="c" d="M1002.168,5576.768h-2.3a4.092,4.092,0,0,1-.9,1.1,3.179,3.179,0,0,1-2.064.681,1.956,1.956,0,0,1-1.735-.792,2.823,2.823,0,0,1-.081-2.384,5.007,5.007,0,0,1,1.438-2.458,3.3,3.3,0,0,1,2.252-.868,1.98,1.98,0,0,1,1.7.615,1.818,1.818,0,0,1,.285,1.026h2.324a2.474,2.474,0,0,0-.256-1.765q-.846-1.564-3.651-1.564a6.552,6.552,0,0,0-3.8,1.166,6.733,6.733,0,0,0-2.659,3.816,3.947,3.947,0,0,0,.329,3.6,4.007,4.007,0,0,0,3.4,1.308,6.282,6.282,0,0,0,3.458-.968,6.088,6.088,0,0,0,2.267-2.514"/></g></g></g></svg>