<svg xmlns="http://www.w3.org/2000/svg" xmlns:xlink="http://www.w3.org/1999/xlink" width="161.745" height="57.783" viewBox="0 0 161.745 57.783"><defs><style>.a{fill:none;}.b{clip-path:url(#a);}.c{fill:#fff;}</style><clipPath id="a"><rect class="a" width="161.745" height="57.783"/></clipPath></defs><g transform="translate(-950.501 -5550.165)"><g transform="translate(950.501 5550.165)"><g class="b"><g class="b"><path class="c" d="M1052.059,5566.646l-3.56,12.307a7.789,7.789,0,0,1-1.443,3.018,5.313,5.313,0,0,1-4.363,1.685q-3.006,0-3.42-1.685a5.756,5.756,0,0,1,.291-3.018l3.563-12.307h-5l-3.561,12.307a8.307,8.307,0,0,0-.273,4.971q1.251,3.265,7.369,3.265t9.237-3.265a11.923,11.923,0,0,0,2.606-4.971l3.561-12.307Z" transform="translate(-908.743 -5541.924)"/><path class="c" d="M971.124,5570.714l3.536-12.2h-7.841l-3.52,12.2Z" transform="translate(-944.102 -5545.992)"/><path class="c" d="M970.831,5570.8l-1.577,5.549h12.075l-4.13,14.381h7.868l9.294-32.215h-7.868l-3.56,12.285Z" transform="translate(-941.125 -5545.992)"/><path class="c" d="M959.451,5584.718h7.84l4.076-14.189h-7.824Z" transform="translate(-946.026 -5539.984)"/><path class="c" d="M1026.3,5578.518l.716-2.461h-8.1l.864-3.015h8.828l.73-2.507H1017.1l-4.09,14.179h12.641l.732-2.551h-9.235l1.047-3.646Z" transform="translate(-919.249 -5539.98)"/><path class="c" d="M1038.556,5571.888a2.891,2.891,0,0,0-1.322-.987,7.678,7.678,0,0,0-2.587-.364h-8.181l-4.094,14.178h3.407l1.6-5.561h3.6a2.89,2.89,0,0,1,1.969.45q.43.457.062,1.809l-.359,1.318a5.774,5.774,0,0,0-.2,1.222c-.009.191,0,.448.015.762h3.837l.091-.357a.843.843,0,0,1-.4-.807,7,7,0,0,1,.293-1.32l.273-.95a3.789,3.789,0,0,0,.157-2.219,2.048,2.048,0,0,0-1.308-1.12,4.808,4.808,0,0,0,2.379-1.381,5.186,5.186,0,0,0,1.18-1.988,3.252,3.252,0,0,0,.108-1.49,3.026,3.026,0,0,0-.513-1.193m-3.208,3.09a2.279,2.279,0,0,1-1.512,1.6,5.75,5.75,0,0,1-1.832.23h-3.951l1.1-3.807h4.053a3.876,3.876,0,0,1,1.632.251c.582.288.755.868.51,1.729" transform="translate(-914.567 -5539.98)"/><path class="c" d="M991.194,5570.536l-10.044,14.178h3.645l1.99-2.918h6.145l.239,2.918h3.78l-1.816-14.178Zm-2.763,8.821,3.757-5.582.475,5.582Z" transform="translate(-935.177 -5539.98)"/><path class="c" d="M1020.9,5570.535h-4.5l-8.126,5.836,1.687-5.836h-3.432l-4.09,14.179h3.429l1.361-4.743,2.084-1.452,3.369,6.2h4.481l-4.78-8.343Z" transform="translate(-924.535 -5539.98)"/><path class="c" d="M1007.026,5579.974h-3.453a6.144,6.144,0,0,1-1.351,1.644,4.768,4.768,0,0,1-3.1,1.021,2.933,2.933,0,0,1-2.6-1.187q-.814-1.192-.121-3.576a7.509,7.509,0,0,1,2.157-3.687,4.951,4.951,0,0,1,3.378-1.3,2.969,2.969,0,0,1,2.544.923,2.723,2.723,0,0,1,.427,1.538h3.486a3.711,3.711,0,0,0-.384-2.647q-1.269-2.347-5.476-2.346a9.826,9.826,0,0,0-5.7,1.749,10.1,10.1,0,0,0-3.988,5.724q-.994,3.435.494,5.407t5.1,1.962a9.42,9.42,0,0,0,5.187-1.451,9.134,9.134,0,0,0,3.4-3.771" transform="translate(-929.527 -5540.071)"/></g></g></g></g></svg>