<svg xmlns="http://www.w3.org/2000/svg" xmlns:xlink="http://www.w3.org/1999/xlink" width="2635.935" height="2642.047" viewBox="0 0 2635.935 2642.047"><defs><style>.a{fill:url(#a);}.b{filter:url(#b);}</style><linearGradient id="a" x1="0.5" y1="0.368" x2="0.5" y2="0.853" gradientUnits="objectBoundingBox"><stop offset="0" stop-color="#030226"/><stop offset="1" stop-color="#020119"/></linearGradient><filter id="b" x="0" y="0" width="2635.935" height="2642.047" filterUnits="userSpaceOnUse"><feOffset dy="20" input="SourceAlpha"/><feGaussianBlur stdDeviation="19.5" result="c"/><feFlood/><feComposite operator="in" in2="c"/><feComposite in="SourceGraphic"/></filter></defs><g class="b" transform="matrix(1, 0, 0, 1, 0, 0)"><path class="a" d="M0,2190.6S201.574,247.158,339.574,123.158s257-124,278-123c125,2,205,149,234,184,79.047,118.076,178.275,167.1,262.946,186.33,40.437,7.877,115.141,16.6,191.341-4.525,49.98-18.508,145.781-46.25,207.747-15.416,55.931,27.83,105.224,70.324,148.154,102.551a109.92,109.92,0,0,1,12.766,8.054,347.562,347.562,0,0,0,52.187,31.6c.239.09.475.177.714.265a14.191,14.191,0,0,1,4.058,2.091c92.093,44.8,207.8,64.357,232.962,68.932C2125,596.147,2472.214,443.1,2472.214,443.1l46.721,222.065V2496.445l-2241.586,28.6Z" transform="translate(58.5 38.5)"/></g></svg>