<?xml version="1.0" encoding="utf-8"?>
<!-- Generator: Adobe Illustrator 24.2.0, SVG Export Plug-In . SVG Version: 6.00 Build 0)  -->
<svg version="1.1" id="Layer_1" xmlns="http://www.w3.org/2000/svg" xmlns:xlink="http://www.w3.org/1999/xlink" x="0px" y="0px"
	 viewBox="0 0 293.4 70.2" style="enable-background:new 0 0 293.4 70.2;" xml:space="preserve">
<style type="text/css">
	.st0{clip-path:url(#SVGID_2_);}
	.st1{clip-path:url(#SVGID_4_);}
	.st2{fill:#FFFFFF;}
	.st3{fill:#FFCA06;}
</style>
<g>
	<g>
		<g id="Layer_2_1_">
			<g>
				<defs>
					<rect id="SVGID_1_" x="-22" y="-18.4" width="341.1" height="107.5"/>
				</defs>
				<clipPath id="SVGID_2_">
					<use xlink:href="#SVGID_1_"  style="overflow:visible;"/>
				</clipPath>
				<g id="Layer_1-2" class="st0">
					<path d="M0,0h52v70.2H0V0z"/>
					<g>
						<g>
							<defs>
								<rect id="SVGID_3_" x="-22" y="-18.4" width="341.1" height="107.5"/>
							</defs>
							<clipPath id="SVGID_4_">
								<use xlink:href="#SVGID_3_"  style="overflow:visible;"/>
							</clipPath>
							<g class="st1">
								<path class="st2" d="M10,56.1v-6.3h2.4V56c0,1.8,0.9,2.7,2.4,2.7s2.4-0.9,2.4-2.6v-6.3h2.4V56c0,3.3-1.9,4.9-4.8,4.9
									S10,59.3,10,56.1"/>
								<path class="st2" d="M22,55.4L22,55.4c-0.1-3.1,2.3-5.6,5.4-5.7c0.1,0,0.2,0,0.3,0c1.6-0.1,3.2,0.5,4.3,1.7l-1.5,1.8
									c-0.7-0.8-1.7-1.2-2.8-1.2c-1.8,0-3.2,1.5-3.2,3.3v0.1l0,0c-0.1,1.8,1.3,3.3,3.1,3.4h0.1c1.1,0,2.1-0.5,2.9-1.3L32,59
									c-1.1,1.3-2.8,2.1-4.5,2c-3.1,0.1-5.6-2.4-5.6-5.4C21.9,55.5,21.9,55.5,22,55.4"/>
								<path class="st2" d="M34.5,49.8h8.3V52h-5.9v2.4h5.2v2.2h-5.2v4.2h-2.4V49.8z"/>
								<path class="st3" d="M32.6,38c0-0.9-0.2-1.8-0.6-2.6c-0.8-1.6-3.3-2.7-5.7-3.8c-1.1-0.5-2.2-1-3.3-1.7c-4.5-2.7-6-6-6.4-8.4
									c-0.1-0.6-0.2-1.2-0.2-1.9c0-1.9,0.6-3.8,1.7-5.3c4.2-5.7,11.4-5,13.5-4.7c-2.1,0.1-7.2,1-9.6,5.9c-0.5,0.9-0.7,1.9-0.7,2.9
									c0,4,4.1,7.4,7.3,10.2c1.1,1,2.2,1.8,3,2.7c1.3,1.2,2.1,3,2.2,4.8c-0.1,1.5-0.6,3-1.6,4.2C32.4,39.6,32.6,38.8,32.6,38"/>
								<path class="st3" d="M12.7,35.6c2,1.6,4.4,2.7,6.9,3.3c1.7,0.4,3.5,0.6,5.3,0.6c1-0.1,2,0.1,3,0.4c0.5,0.2,0.8,0.7,0.9,1.3
									v0.3c-0.2,0.7-1.2,1.5-3.4,1.6C18.5,43.1,14.3,38.1,12.7,35.6"/>
								<path class="st3" d="M24.8,24c0,0,2.8-4.7,5.7-5.5c3.5-0.9,5.4,0.6,5.4,0.6l1-1.9l1.5,7.3c0,0,0.3,0.7-1,1.5
									s-1.3,0.7-1.3,0.7s-0.8-3-2.4-3.3s-1.6,1.8-1.5,2.4s1.4,3.4,3.7,2.3c1.4-0.7,2.6-1.6,3.6-2.8c0,0,0.3-0.8,0.7-0.6
									s1.7,1.7,1.7,1.7l-0.5,8.8c0,0,0,1.1-1.5,1.5S38.4,37,38.4,37l0.8-2.7h1l-0.3-6.2c-0.5,2.3-1.3,4.6-2.4,6.7
									c-1.3,2.1-2.9,4.1-4.8,5.8c1.1-1.4,1.7-3.2,1.6-5c-0.2-1.8-1-3.9-4.9-7.1C27.8,27,26.3,25.5,24.8,24"/>
								<path class="st3" d="M29.4,41c0-0.3-0.1-0.5-0.2-0.8c-0.4-0.8-1.6-1.3-3.6-1.4c-3.5-0.1-11.9-1-14.2-6.5
									c-0.8-1.8-1.1-3.8-1.1-5.7c0-1.8,0.3-3.6,0.8-5.3c0,0.3-0.1,0.8-0.1,0.8c-0.1,3.5,1.4,6.9,4,9.2c2.2,1.9,5.6,3.3,10,4.4
									c3,0.7,4.7,1.8,5,3.1l0.1,0.6c-0.1,0.8-0.4,1.5-0.9,2.2C29.3,41.4,29.4,41.1,29.4,41"/>
								<path class="st3" d="M31,39.5c0-0.4-0.1-0.9-0.3-1.3c-0.7-1.5-2.4-2.6-5.3-3.2c-7.5-1.7-11.8-4.7-13.1-9.2
									c-0.3-1-0.4-2.1-0.4-3.2c0-6.3,5.5-9.6,7.4-10.6c-1.8,1.6-3.1,3.8-3.5,6.2c-0.1,0.5-0.1,1-0.1,1.6c0,3.7,1.9,7,5.8,10
									c1.4,1,2.9,1.8,4.5,2.4c2.3,1.1,4.5,2,5.4,3.5c0.4,0.6,0.6,1.3,0.6,2.1c-0.1,1.1-0.5,2.1-1.2,3C30.9,40.3,31,39.9,31,39.5"
									/>
								<path class="st3" d="M30.7,13.8c-1.3-0.1-2.3-1.1-2.4-2.4c-0.1,1.3-1.1,2.3-2.3,2.4c1.3,0.1,2.3,1.1,2.4,2.4
									C28.5,14.9,29.5,13.8,30.7,13.8"/>
								<path class="st2" d="M70.6,31.8v-7.5h2.3v7.4c0,2.4,1.3,3.7,3.3,3.7s3.3-1.2,3.3-3.6v-7.5h2.3v7.4c0,3.9-2.2,5.9-5.6,5.9
									C72.7,37.6,70.6,35.6,70.6,31.8"/>
								<path class="st2" d="M87.7,24.3h2.2l7,9v-9h2.2v13.1h-1.9L90,28.1v9.3h-2.3V24.3z"/>
								<path class="st2" d="M105.4,24.3h2.3v13.1h-2.3V24.3z"/>
								<path class="st2" d="M112.9,24.3h2.6l3.9,10.1l3.9-10.1h2.5l-5.4,13.2h-2L112.9,24.3z"/>
								<path class="st2" d="M130.9,24.3h9.7v2.1h-7.4v3.4h6.5v2h-6.5v3.5h7.5v2.1h-9.8V24.3z"/>
								<path class="st2" d="M146.2,24.3h5.9c1.4-0.1,2.7,0.4,3.8,1.3c0.7,0.8,1.1,1.8,1.1,2.8l0,0c0.1,1.9-1.2,3.6-3.1,4l3.5,5
									h-2.7l-3.2-4.6h-2.9v4.6h-2.3V24.3H146.2z M151.9,30.8c1.6,0,2.7-0.9,2.7-2.2l0,0c0-1.4-1-2.2-2.7-2.2h-3.3v4.4L151.9,30.8z
									"/>
								<path class="st2" d="M161.6,35.5l1.4-1.6c1.1,1.1,2.6,1.7,4.1,1.7c1.4,0,2.3-0.7,2.3-1.6l0,0c0-0.9-0.5-1.4-2.9-2
									c-2.8-0.7-4.4-1.5-4.4-3.9l0,0c0-2.2,1.9-3.8,4.5-3.8c1.7,0,3.4,0.6,4.8,1.7l-1.2,1.7c-1-0.8-2.3-1.3-3.6-1.3
									s-2.1,0.7-2.1,1.5l0,0c0,1,0.6,1.5,3.1,2c2.8,0.7,4.2,1.7,4.2,3.8l0,0c0,2.5-1.9,3.9-4.7,3.9
									C165.1,37.5,163.2,36.8,161.6,35.5"/>
								<path class="st2" d="M177.4,24.3h2.3v13.1h-2.3V24.3z"/>
								<path class="st2" d="M189.2,26.4h-4.1v-2.1h10.6v2.1h-4.1v11h-2.4V26.4z"/>
								<path class="st2" d="M204.8,32.2l-5.2-7.9h2.7l3.7,5.8l3.7-5.8h2.6l-5.2,7.9v5.2h-2.3V32.2z"/>
								<path class="st2" d="M225,30.9L225,30.9c0-3.8,3.1-6.8,6.8-6.8c3.8,0,6.8,3.1,6.8,6.8l0,0c0,3.8-3.1,6.8-6.8,6.8
									C228,37.7,225,34.7,225,30.9 M236.2,30.9L236.2,30.9c0.1-2.5-1.8-4.6-4.3-4.6h-0.1c-2.4,0-4.4,2-4.4,4.4c0,0.1,0,0.1,0,0.2
									l0,0c-0.1,2.5,1.8,4.5,4.3,4.6c0.1,0,0.1,0,0.2,0c2.4,0,4.4-2,4.4-4.4C236.2,31,236.2,30.9,236.2,30.9"/>
								<path class="st2" d="M244.2,24.3h9.8v2.1h-7.5V30h6.6v2.1h-6.6v5.3h-2.3V24.3z"/>
								<path class="st2" d="M70.2,54.4L70.2,54.4c-0.1-3.7,2.8-6.7,6.5-6.8c0.1,0,0.2,0,0.3,0c1.9-0.1,3.8,0.6,5.1,2l-1.5,1.7
									c-1-1-2.3-1.6-3.7-1.6c-2.4,0-4.4,2.1-4.3,4.5v0.1l0,0c-0.1,2.4,1.8,4.5,4.2,4.6h0.1c1.4,0,2.8-0.6,3.8-1.7l1.5,1.5
									c-1.3,1.5-3.3,2.4-5.3,2.3C73.3,61,70.3,58.1,70.2,54.4L70.2,54.4"/>
								<path class="st2" d="M87.4,47.8h9.7v2.1h-7.4v3.4h6.5v2h-6.5v3.6h7.5v2h-9.8V47.8z"/>
								<path class="st2" d="M102.7,47.8h2.1l7,9.1v-9.1h2.3v13.1h-1.9l-7.2-9.3v9.3h-2.3V47.8z"/>
								<path class="st2" d="M123.5,50h-4.2v-2.2H130V50h-4.2v10.9h-2.3V50z"/>
								<path class="st2" d="M135.2,47.8h5.9c1.4-0.1,2.7,0.4,3.8,1.3c0.7,0.8,1.1,1.8,1.1,2.8l0,0c0.1,1.9-1.2,3.6-3.1,4l3.5,5
									h-2.7l-3.2-4.6h-2.9V61h-2.3L135.2,47.8z M140.9,54.3c1.6,0,2.7-0.9,2.7-2.2l0,0c0-1.4-1-2.2-2.7-2.2h-3.4v4.4H140.9z"/>
								<path class="st2" d="M156.2,47.7h2.1l5.8,13.2h-2.4l-1.3-3.2h-6.2l-1.3,3.2h-2.4L156.2,47.7z M159.4,55.7l-2.3-5.2l-2.2,5.2
									H159.4z"/>
								<path class="st2" d="M169.1,47.8h2.3v11h6.9v2.1h-9.2V47.8z"/>
								<path class="st2" d="M191.9,47.8h9.7v2.1h-7.4v3.6h6.6v2.1h-6.6v5.3h-2.3V47.8z"/>
								<path class="st2" d="M206.9,47.8h2.4v11h6.8v2.1h-9.2V47.8z"/>
								<path class="st2" d="M220.1,54.4L220.1,54.4c0.1-3.8,3.3-6.7,7.1-6.6c3.6,0.1,6.4,3,6.6,6.6l0,0c-0.1,3.8-3.3,6.7-7.1,6.6
									C223.1,60.9,220.2,58,220.1,54.4 M231.3,54.4L231.3,54.4c0.1-2.5-1.8-4.6-4.3-4.7h-0.1c-2.4,0-4.4,2-4.4,4.4
									c0,0.1,0,0.1,0,0.2l0,0c-0.1,2.5,1.8,4.5,4.3,4.6c0.1,0,0.1,0,0.2,0C229.4,58.9,231.4,56.9,231.3,54.4
									C231.3,54.6,231.3,54.5,231.3,54.4"/>
								<path class="st2" d="M239.3,47.8h5.8c1.4-0.1,2.7,0.4,3.8,1.3c0.7,0.8,1.1,1.8,1.1,2.8l0,0c0.1,1.9-1.2,3.6-3.1,4l3.5,5
									h-2.7l-3.2-4.6h-2.9V61h-2.3L239.3,47.8z M244.9,54.3c1.6,0,2.7-0.9,2.7-2.2l0,0c0-1.4-1-2.2-2.7-2.2h-3.3v4.4H244.9z"/>
								<path class="st2" d="M255.7,47.8h2.3v13.1h-2.3V47.8z"/>
								<path class="st2" d="M264.3,47.8h4.9c4.1,0,7,2.8,7,6.5l0,0c0,3.7-2.8,6.5-7,6.5h-4.9V47.8z M266.6,49.9v8.9h2.6
									c2.4,0.2,4.4-1.6,4.5-4c0-0.1,0-0.3,0-0.4l0,0c0.1-2.4-1.8-4.4-4.1-4.5c-0.1,0-0.3,0-0.4,0H266.6z"/>
								<path class="st2" d="M285.5,47.7h2.1l5.8,13.2H291l-1.3-3.2h-6.2l-1.4,3.2h-2.4L285.5,47.7z M288.8,55.7l-2.3-5.2l-2.2,5.2
									H288.8z"/>
							</g>
						</g>
					</g>
				</g>
			</g>
		</g>
	</g>
</g>
</svg>
